<svg fill="#000000" xmlns="http://www.w3.org/2000/svg"  viewBox="0 0 50 50" width="50px" height="50px"><path d="M39.9 29.5c0 .6.2.8.3 1C40.482 30.882 42 33 42 33c.043.102.1.2.1.3 0 .4-.3.7-.6.7 0 0-4.8 0-4.9 0-.174 0-.305-.042-.42-.101-.087-.094-.157-.168-.218-.231C37.16 33.11 38 31.902 38 30.5c0-1.925-1.575-3.5-3.5-3.5h-.4-3.4H29h-1v10h1 2l0 0c0 0 0-2.125 0-3.116.655.624 2.221 2.115 3 2.816.1.1.4.3.8.3.3 0 8.8 0 9.3 0 1.3 0 2.4-.9 2.4-2.4 0-.6-.2-.8-.3-1l-1.669-2.5c-.033-.069-.1-.2-.1-.3 0-.4.3-.8.6-.8H48v-1-1-1c0 0-4.8 0-5.7 0C41 27 39.9 28.1 39.9 29.5zM31 30h3c.276 0 .5.224.5.5 0 .276-.224.5-.5.5h-3V30zM15.6 27L14 27 13 27 12.033 29.9 11.067 27 10.4 27 8 27 7.6 27 6.546 29.937 5.567 27 4.9 27 3 27 2.4 27 5.733 37 6.4 37 7 37 8.1 37 9.673 32.447 11.245 37 11.9 37 13 37 13.6 37 16.933 27zM23 27h-2.878H19.3l-3.222 10H16.9h1.05 1.35l.7-2h3.15l.7 2h.65 1.833H27l-3.333-10H23zM20.7 33l.867-2.6 1.006 2.6H20.7zM43.6 21c-.228 0-.388-.068-.523-.161-.064-.061-.109-.1-.16-.147C44.14 20.145 45 18.92 45 17.5c0-1.925-1.575-3.5-3.5-3.5H41h-5-1v10h1 2l0 0c0 0 0-2.125 0-3.111.657.627 2.22 2.112 2.998 2.811.1.1.4.3.8.3.3 0 6.202 0 6.202 0v-1-1-1H43.6zM38 17h3c.276 0 .5.224.5.5 0 .276-.224.5-.5.5h-3V17zM8 24c1.395 0 2.555 0 2.8 0 1.3 0 2.4-1 2.4-2.4 0-.6-.2-.8-.3-1L11.233 18c-.057-.075-.1-.2-.1-.3 0-.4.3-.7.7-.7H16v7h1 2 1v-7h4v-1-1-1h-1.2c0 0-12.6 0-13.5 0C8 14 7 15 7 16.4c0 .6.2.8.3 1C7.578 17.906 8.857 20 8.857 20c.069.098.08.168.1.3.1.4-.2.7-.6.7H2v3c0 0 .396 0 1 0C3 24 5.413 24 8 24zM30 14h-2.878H26.3l-3.222 10H23.9h1.05 1.35l.7-2h3.15l.7 2h.65 1.833H34l-3.333-10H30zM27.7 20l.867-2.6 1.006 2.6H27.7z"/></svg>